<svg width="115" height="115" viewBox="0 0 115 115" fill="none" xmlns="http://www.w3.org/2000/svg">
<rect x="2" y="2" width="111" height="111" stroke="#c168d5" stroke-width="4"/>
<path d="M29.7869 66.2266C29.4145 69.2057 29.2283 71.5833 29.2283 73.3594C29.2283 75.1068 29.4431 76.7253 29.8728 78.2148C30.3025 79.7044 30.9184 80.9935 31.7205 82.082C33.4392 84.4023 35.6163 85.5625 38.2517 85.5625C43.2934 85.5625 45.8142 82.7839 45.8142 77.2266C45.8142 72.7578 43.2218 68.0169 38.0369 63.0039L33.5681 58.6641C29.6436 54.8828 26.9653 51.8464 25.533 49.5547C22.697 45.0286 21.2791 40.5312 21.2791 36.0625C21.2791 32.4245 22.4535 29.3737 24.8025 26.9102C27.6384 23.9023 31.7205 22.3984 37.0486 22.3984C39.1397 22.3984 40.7153 22.4987 41.7752 22.6992C43.7517 23.0716 45.0694 23.2578 45.7283 23.2578C47.3897 23.2578 48.6788 22.7422 49.5955 21.7109C49.9392 21.3385 50.3116 20.8516 50.7127 20.25C52.8038 21.4245 53.8494 25.7357 53.8494 33.1836C53.8494 37.9388 53.3767 41.4479 52.4314 43.7109C52.1163 44.4844 51.7582 44.9714 51.3572 45.1719C50.8989 40.8464 49.4952 36.9792 47.1463 33.5703C44.3963 29.5599 41.2166 27.5547 37.6072 27.5547C34.5134 27.5547 32.6085 28.9727 31.8923 31.8086C31.6918 32.6107 31.5916 33.6133 31.5916 34.8164C31.5916 35.9909 31.9496 37.3372 32.6658 38.8555C33.3819 40.3737 34.3129 41.8919 35.4588 43.4102C36.6332 44.8997 37.9796 46.4036 39.4978 47.9219C44.0811 52.6198 47.1176 55.7995 48.6072 57.4609C50.1254 59.1224 51.4718 60.8411 52.6463 62.6172C55.2244 66.599 56.5134 70.4518 56.5134 74.1758C56.5134 78.6732 54.766 82.3971 51.2713 85.3477C47.6619 88.3555 43.0213 89.8594 37.3494 89.8594C32.6515 89.8594 28.6124 88.6849 25.2322 86.3359C21.5082 83.7578 19.6463 80.349 19.6463 76.1094C20.7634 72.1276 23.1983 69.2057 26.9509 67.3438C27.9535 66.8281 28.8989 66.4557 29.7869 66.2266ZM77.6077 72.457L77.6506 63.4766V58.5781C77.6506 56 76.5907 52.3333 74.4709 47.5781C72.8381 43.9974 71.7353 41.6341 71.1623 40.4883L69.7444 37.6523C66.0491 29.918 62.8121 25.1198 60.0334 23.2578H77.3498C77.1493 23.8307 77.0491 24.5612 77.0491 25.4492C77.0491 26.3372 77.1207 27.2826 77.2639 28.2852C77.4071 29.2591 77.5933 30.2617 77.8225 31.293C78.2522 33.2695 78.8108 35.0885 79.4983 36.75L81.5608 41.7344C82.2769 43.3958 83.165 45.0859 84.2248 46.8047C85.5712 44.7708 86.6454 42.7799 87.4475 40.832L89.0803 36.793C90.7131 32.6393 91.5295 28.6862 91.5295 24.9336C91.5295 24.3034 91.4866 23.7448 91.4006 23.2578H103.217C101.642 24.9193 99.9944 27.3398 98.2756 30.5195C96.5569 33.6992 95.3538 36.0052 94.6663 37.4375L92.4748 42.207C89.4957 48.7956 88.0061 54.0664 88.0061 58.0195V77.6562C88.0061 80.5781 88.3498 82.6836 89.0373 83.9727C89.7248 85.2617 90.4553 86.2643 91.2288 86.9805C92.0022 87.6966 92.9332 88.3698 94.0217 89H72.0647C75.76 87.1094 77.6077 83.6576 77.6077 78.6445V72.457Z" fill="#B363A1"/>
</svg>
